<svg viewBox="0 0 20 20" fill="none" xmlns="http://www.w3.org/2000/svg">
  <g clip-path="url(#clip0_6_68)">
    <path d="M10 0C4.47508 0 0 4.47816 0 10C0 15.522 4.47508 20 10 20C15.522 20 20 15.522 20 10C20 4.47816 15.522 0 10 0ZM10.228 8.69965C10.2301 8.6998 10.2323 8.69992 10.2344 8.70008C10.197 8.54383 10.1782 8.38133 10.1782 8.21258C10.1782 7.03125 11.1375 6.07191 12.3189 6.07191C12.9344 6.07191 13.4907 6.33133 13.8814 6.75C14.2811 6.67051 14.6602 6.53395 15.0118 6.35207C15.0878 6.31422 15.1637 6.27652 15.238 6.23457C15.1105 6.63039 14.8665 6.97293 14.552 7.22961C14.4716 7.29309 14.3898 7.35531 14.2995 7.40629C14.3035 7.40598 14.3073 7.40508 14.3111 7.40461C14.3073 7.40687 14.3041 7.41027 14.3001 7.41254C14.6491 7.37211 14.9849 7.28684 15.3044 7.16703C15.3773 7.14125 15.4504 7.115 15.5228 7.0857C15.2361 7.51066 14.8757 7.88633 14.4594 8.18449C14.4656 8.27816 14.4656 8.36883 14.4656 8.46254C14.4656 11.2907 12.3126 14.5532 8.37508 14.5532C7.16566 14.5532 6.04062 14.2002 5.09383 13.5907C5.26258 13.6095 5.43137 13.622 5.60637 13.622C6.33727 13.622 7.02395 13.4379 7.62633 13.1163C7.63914 13.1095 7.65242 13.1038 7.66523 13.0968C7.70371 13.0757 7.74047 13.0521 7.77812 13.03C7.94477 12.9334 8.10742 12.8286 8.26242 12.7095C8.26 12.7095 8.25754 12.7089 8.25496 12.7088C8.25738 12.707 8.26016 12.7053 8.26258 12.7033C7.44609 12.6895 6.73961 12.2153 6.39078 11.5288C6.3418 11.4304 6.30043 11.327 6.26641 11.2195C6.39645 11.244 6.52945 11.2565 6.66559 11.2565C6.80793 11.2565 6.94406 11.2388 7.0777 11.2127C7.12852 11.2045 7.1798 11.198 7.22996 11.1875C7.22598 11.1868 7.22234 11.1849 7.21836 11.184C7.2225 11.1829 7.22707 11.1826 7.23117 11.1814C6.24988 10.9846 5.51242 10.1189 5.51242 9.08148V9.05648C5.74055 9.1816 5.9925 9.26629 6.26074 9.30215C6.33367 9.31344 6.40691 9.32258 6.48078 9.32719C6.47805 9.32535 6.47559 9.32289 6.4727 9.32094C6.47668 9.32105 6.48047 9.32199 6.4843 9.32199C5.90938 8.93762 5.53125 8.28457 5.53125 7.54082C5.53125 7.20512 5.61352 6.88773 5.75266 6.60406C5.77602 6.55859 5.79676 6.51191 5.82359 6.46797C6.8632 7.74375 8.4141 8.58938 10.1664 8.69496C10.1871 8.69633 10.2075 8.70047 10.2284 8.70152C10.2281 8.70086 10.2281 8.70023 10.228 8.69965Z" fill="white"/>
  </g>
  <defs>
    <clipPath id="clip0_6_68">
      <rect width="20" height="20" fill="white"/>
    </clipPath>
  </defs>
</svg>
