<svg viewBox="0 0 19 19" fill="none" xmlns="http://www.w3.org/2000/svg">
  <path d="M0.839211 17.9241H4.49719C4.69085 17.9241 4.86299 17.8165 4.97058 17.6659L15.0408 1.11889C15.1699 0.903718 15.0193 0.645508 14.7611 0.645508H11.2967C11.1246 0.645508 10.974 0.731578 10.8879 0.882201L0.667071 17.6229C0.602518 17.752 0.688588 17.9241 0.839211 17.9241Z" fill="white"/>
  <path d="M13.4485 17.6659L18.2039 10.0271C18.3545 9.79044 18.1824 9.4892 17.9027 9.4892H14.4599C14.3308 9.4892 14.2016 9.55375 14.1371 9.66134L9.25261 17.4722C9.12351 17.6659 9.27413 17.9241 9.51082 17.9241H13.0182C13.1903 17.9241 13.3625 17.838 13.4485 17.6659Z" fill="white"/>
</svg>
